<svg xmlns="http://www.w3.org/2000/svg" fill="none" viewBox="0 0 24 24" id="filelocked"><path fill="url(#a)" d="M22 20v2a1 1 0 0 1-1 1h-6a1 1 0 0 1-1-1v-2a1 1 0 0 1 1-1v-1a3 3 0 0 1 6 0v1a1 1 0 0 1 1 1Zm-5-1h2v-1a1 1 0 0 0-2 0v1Z"></path><path fill="url(#b)" d="M18.88 6H15a1 1 0 0 1-1-1V1.11a2.9 2.9 0 0 1 1.33.77l2.8 2.84A3 3 0 0 1 18.88 6Z"></path><path fill="url(#c)" d="M19 8v5a1 1 0 0 1-1 1 6 6 0 0 0-6 6v2a1 1 0 0 1-1 1H6a3 3 0 0 1-3-3V4a3 3 0 0 1 3-3h6v4a3 3 0 0 0 3 3h4Z"></path><defs><linearGradient id="a" x1="18" x2="18" y1="15" y2="23" gradientUnits="userSpaceOnUse"><stop stop-color="#87ddfd" class="stopColor9cffac svgShape"></stop><stop offset="1" stop-color="#213dd9" class="stopColor00b59c svgShape"></stop></linearGradient><linearGradient id="b" x1="16.44" x2="16.44" y1="1.11" y2="6" gradientUnits="userSpaceOnUse"><stop stop-color="#87ddfd" class="stopColor9cffac svgShape"></stop><stop offset="1" stop-color="#213dd9" class="stopColor00b59c svgShape"></stop></linearGradient><linearGradient id="c" x1="11" x2="11" y1="1" y2="23" gradientUnits="userSpaceOnUse"><stop stop-color="#87ddfd" class="stopColor9cffac svgShape"></stop><stop offset="1" stop-color="#213dd9" class="stopColor00b59c svgShape"></stop></linearGradient></defs></svg>